<svg width="70" height="20" viewBox="0 0 70 20" fill="none" xmlns="http://www.w3.org/2000/svg">
<rect x="1.23185" y="1.48038" width="67.2874" height="17.3645" rx="0.54264" fill="#CC4242" stroke="#CC4242" stroke-width="1.08528"/>
<path fill-rule="evenodd" clip-rule="evenodd" d="M18.2969 6.09993C18.4995 6.03917 18.7134 6.0266 18.9217 6.06323C19.13 6.09985 19.3268 6.18466 19.4965 6.31087C19.6661 6.43709 19.8039 6.60122 19.8989 6.79017C19.9938 6.97911 20.0433 7.18764 20.0433 7.3991V14.0121C20.0433 14.2235 19.9938 14.4321 19.8989 14.621C19.8039 14.81 19.6661 14.9741 19.4965 15.1003C19.3268 15.2265 19.13 15.3113 18.9217 15.348C18.7134 15.3846 18.4995 15.372 18.2969 15.3112L15.5837 14.4973C15.3043 14.4135 15.0594 14.2418 14.8852 14.0078C14.7111 13.7738 14.617 13.4898 14.6169 13.1981V8.21306C14.617 7.92135 14.7111 7.63742 14.8852 7.40339C15.0594 7.16937 15.3043 6.99771 15.5837 6.91389L18.2969 6.09993ZM20.4955 7.08799C20.4955 6.96806 20.5432 6.85304 20.628 6.76824C20.7128 6.68343 20.8278 6.63579 20.9477 6.63579H22.3043C22.6641 6.63579 23.0092 6.77872 23.2636 7.03313C23.518 7.28754 23.6609 7.6326 23.6609 7.99239V8.44459C23.6609 8.56452 23.6133 8.67954 23.5285 8.76434C23.4437 8.84915 23.3287 8.89679 23.2087 8.89679C23.0888 8.89679 22.9738 8.84915 22.889 8.76434C22.8042 8.67954 22.7565 8.56452 22.7565 8.44459V7.99239C22.7565 7.87246 22.7089 7.75744 22.6241 7.67264C22.5393 7.58783 22.4243 7.54019 22.3043 7.54019H20.9477C20.8278 7.54019 20.7128 7.49255 20.628 7.40774C20.5432 7.32294 20.4955 7.20792 20.4955 7.08799ZM23.2087 12.5144C23.3287 12.5144 23.4437 12.562 23.5285 12.6468C23.6133 12.7316 23.6609 12.8467 23.6609 12.9666V13.4188C23.6609 13.7786 23.518 14.1236 23.2636 14.3781C23.0092 14.6325 22.6641 14.7754 22.3043 14.7754H20.9477C20.8278 14.7754 20.7128 14.7277 20.628 14.6429C20.5432 14.5581 20.4955 14.4431 20.4955 14.3232C20.4955 14.2033 20.5432 14.0882 20.628 14.0034C20.7128 13.9186 20.8278 13.871 20.9477 13.871H22.3043C22.4243 13.871 22.5393 13.8233 22.6241 13.7385C22.7089 13.6537 22.7565 13.5387 22.7565 13.4188V12.9666C22.7565 12.8467 22.8042 12.7316 22.889 12.6468C22.9738 12.562 23.0888 12.5144 23.2087 12.5144ZM17.7823 10.2534C17.6624 10.2534 17.5474 10.301 17.4626 10.3858C17.3778 10.4706 17.3301 10.5857 17.3301 10.7056C17.3301 10.8255 17.3778 10.9405 17.4626 11.0253C17.5474 11.1101 17.6624 11.1578 17.7823 11.1578H17.7828C17.9027 11.1578 18.0177 11.1101 18.1026 11.0253C18.1874 10.9405 18.235 10.8255 18.235 10.7056C18.235 10.5857 18.1874 10.4706 18.1026 10.3858C18.0177 10.301 17.9027 10.2534 17.7828 10.2534H17.7823Z" fill="black" fill-opacity="0.56"/>
<path d="M20.9476 10.7057H23.2086M23.2086 10.7057L22.3042 9.80127M23.2086 10.7057L22.3042 11.6101" stroke="black" stroke-opacity="0.56" stroke-width="0.9044" stroke-linecap="round" stroke-linejoin="round"/>
<path d="M32.0337 14.1938C31.9975 14.1938 31.9649 14.183 31.936 14.1613C31.9143 14.1323 31.9034 14.0998 31.9034 14.0636V6.72712C31.9034 6.69094 31.9143 6.662 31.936 6.64029C31.9649 6.61135 31.9975 6.59688 32.0337 6.59688H33.0321C33.0683 6.59688 33.0973 6.61135 33.119 6.64029C33.1479 6.662 33.1624 6.69094 33.1624 6.72712V9.97211C33.1624 9.99381 33.1696 10.0083 33.1841 10.0155C33.1985 10.0228 33.213 10.0191 33.2275 10.0047L36.0492 6.67285C36.0926 6.62221 36.1469 6.59688 36.212 6.59688H37.3407C37.413 6.59688 37.4492 6.62221 37.4492 6.67285C37.4492 6.69456 37.4384 6.7235 37.4167 6.75968L34.9314 9.80931C34.9097 9.83826 34.9061 9.86358 34.9205 9.88528L37.5903 14.0419C37.6048 14.0853 37.612 14.1106 37.612 14.1179C37.612 14.1685 37.5758 14.1938 37.5035 14.1938H36.3639C36.2988 14.1938 36.2482 14.1649 36.212 14.107L34.0632 10.7644C34.0342 10.7209 34.0089 10.7173 33.9872 10.7535L33.1841 11.6868C33.1696 11.7158 33.1624 11.7411 33.1624 11.7628V14.0636C33.1624 14.0998 33.1479 14.1323 33.119 14.1613C33.0973 14.183 33.0683 14.1938 33.0321 14.1938H32.0337ZM39.2304 7.88837C39.0061 7.88837 38.8216 7.81602 38.6769 7.67131C38.5322 7.52661 38.4598 7.34211 38.4598 7.11782C38.4598 6.89353 38.5322 6.70903 38.6769 6.56433C38.8216 6.41962 39.0061 6.34727 39.2304 6.34727C39.4546 6.34727 39.6391 6.41962 39.7839 6.56433C39.9286 6.70903 40.0009 6.89353 40.0009 7.11782C40.0009 7.34211 39.9286 7.52661 39.7839 7.67131C39.6391 7.81602 39.4546 7.88837 39.2304 7.88837ZM38.7094 14.1938C38.6732 14.1938 38.6407 14.183 38.6117 14.1613C38.59 14.1323 38.5792 14.0998 38.5792 14.0636V8.76745C38.5792 8.73127 38.59 8.70233 38.6117 8.68062C38.6407 8.65168 38.6732 8.63721 38.7094 8.63721H39.7079C39.7441 8.63721 39.773 8.65168 39.7947 8.68062C39.8236 8.70233 39.8381 8.73127 39.8381 8.76745V14.0636C39.8381 14.0998 39.8236 14.1323 39.7947 14.1613C39.773 14.183 39.7441 14.1938 39.7079 14.1938H38.7094ZM43.5919 14.2807C43.0348 14.2807 42.5537 14.1396 42.1485 13.8574C41.7433 13.568 41.4611 13.1809 41.302 12.6962C41.1862 12.3706 41.1283 11.9365 41.1283 11.3938C41.1283 10.8729 41.1862 10.446 41.302 10.1132C41.4539 9.63567 41.7325 9.25944 42.1376 8.9845C42.55 8.70233 43.0348 8.56124 43.5919 8.56124C44.1563 8.56124 44.6483 8.70233 45.0679 8.9845C45.4875 9.26667 45.7661 9.6212 45.9036 10.0481C45.9397 10.1638 45.9651 10.2796 45.9795 10.3954V10.4171C45.9795 10.4894 45.9397 10.5328 45.8601 10.5473L44.8834 10.6884H44.8617C44.7966 10.6884 44.7532 10.6522 44.7315 10.5799C44.7315 10.5437 44.7278 10.5147 44.7206 10.493C44.7061 10.4352 44.6917 10.3845 44.6772 10.3411C44.6121 10.1385 44.4818 9.97211 44.2865 9.84187C44.0911 9.71164 43.8596 9.64652 43.5919 9.64652C43.317 9.64652 43.0818 9.71887 42.8865 9.86358C42.6984 10.001 42.5717 10.1928 42.5066 10.4388C42.4343 10.6703 42.3981 10.9923 42.3981 11.4047C42.3981 11.8026 42.4307 12.1246 42.4958 12.3706C42.5681 12.6238 42.6984 12.8264 42.8865 12.9783C43.0746 13.123 43.3097 13.1954 43.5919 13.1954C43.8669 13.1954 44.102 13.1267 44.2973 12.9892C44.4999 12.8445 44.6302 12.6527 44.688 12.414C44.6953 12.3995 44.6989 12.3814 44.6989 12.3597C44.7061 12.3525 44.7098 12.3416 44.7098 12.3272C44.7315 12.2403 44.7821 12.2042 44.8617 12.2186L45.8384 12.3706C45.8746 12.3778 45.9036 12.3959 45.9253 12.4248C45.9542 12.4465 45.9651 12.4791 45.9578 12.5225C45.9361 12.6383 45.918 12.7215 45.9036 12.7721C45.7661 13.2352 45.4875 13.6042 45.0679 13.8791C44.6483 14.1468 44.1563 14.2807 43.5919 14.2807ZM47.1761 14.1938C47.1399 14.1938 47.1073 14.183 47.0784 14.1613C47.0567 14.1323 47.0458 14.0998 47.0458 14.0636V6.72712C47.0458 6.69094 47.0567 6.662 47.0784 6.64029C47.1073 6.61135 47.1399 6.59688 47.1761 6.59688H48.1745C48.2107 6.59688 48.2396 6.61135 48.2613 6.64029C48.2903 6.662 48.3047 6.69094 48.3047 6.72712V10.645C48.3047 10.6667 48.312 10.6812 48.3264 10.6884C48.3409 10.6956 48.3554 10.6884 48.3699 10.6667L50.128 8.72403C50.1787 8.67339 50.2329 8.64806 50.2908 8.64806H51.4412C51.5136 8.64806 51.5497 8.67339 51.5497 8.72403C51.5497 8.74574 51.5389 8.77468 51.5172 8.81086L50.1389 10.4605C50.1172 10.4822 50.1135 10.5075 50.128 10.5365L51.7559 14.0419C51.7704 14.0708 51.7776 14.0926 51.7776 14.107C51.7776 14.1649 51.7378 14.1938 51.6583 14.1938H50.6055C50.5332 14.1938 50.4825 14.1613 50.4536 14.0962L49.2706 11.3396C49.2634 11.3251 49.2489 11.3179 49.2272 11.3179C49.2128 11.3106 49.2019 11.3142 49.1947 11.3287L48.3264 12.3272C48.312 12.3561 48.3047 12.3814 48.3047 12.4031V14.0636C48.3047 14.0998 48.2903 14.1323 48.2613 14.1613C48.2396 14.183 48.2107 14.1938 48.1745 14.1938H47.1761Z" fill="black" fill-opacity="0.56"/>
</svg>
