<svg width="24" height="24" viewBox="0 0 24 24" fill="none" xmlns="http://www.w3.org/2000/svg">
<path d="M3 19V5C3 4.45 3.196 3.979 3.588 3.587C3.98 3.195 4.45067 2.99934 5 3H12C12.2833 3 12.521 3.096 12.713 3.288C12.905 3.48 13.0007 3.71733 13 4H15C15.55 4 16.021 4.196 16.413 4.588C16.805 4.98 17.0007 5.45067 17 6V11C17 11.2833 16.904 11.521 16.712 11.713C16.52 11.905 16.2827 12.0007 16 12C15.7167 12 15.479 11.904 15.287 11.712C15.095 11.52 14.9993 11.2827 15 11V6H13V20C13 20.2833 12.904 20.521 12.712 20.713C12.52 20.905 12.2827 21.0007 12 21H2C1.71667 21 1.479 20.904 1.287 20.712C1.095 20.52 0.999337 20.2827 1 20C1 19.7167 1.096 19.479 1.288 19.287C1.48 19.095 1.71734 18.9993 2 19H3ZM9 13C9.28334 13 9.521 12.904 9.713 12.712C9.905 12.52 10.0007 12.2827 10 12C10 11.7167 9.904 11.479 9.712 11.287C9.52 11.095 9.28267 10.9993 9 11C8.71667 11 8.479 11.096 8.287 11.288C8.095 11.48 7.99934 11.7173 8 12C8 12.2833 8.096 12.521 8.288 12.713C8.48 12.905 8.71734 13.0007 9 13ZM17.75 19.25L18.55 21C18.6333 21.2 18.7833 21.3 19 21.3C19.2167 21.3 19.3667 21.2 19.45 21L20.25 19.25L22 18.45C22.2 18.3667 22.3 18.2167 22.3 18C22.3 17.7833 22.2 17.6333 22 17.55L20.25 16.75L19.45 15C19.3667 14.8 19.2167 14.7 19 14.7C18.7833 14.7 18.6333 14.8 18.55 15L17.75 16.75L16 17.55C15.8 17.6333 15.7 17.7833 15.7 18C15.7 18.2167 15.8 18.3667 16 18.45L17.75 19.25Z" fill="white" fill-opacity="0.3"/>
</svg>
