<svg width="21" height="22" viewBox="0 0 21 22" fill="none" xmlns="http://www.w3.org/2000/svg">
<rect x="20.9457" y="21.178" width="20.9456" height="20.9456" rx="10.4728" transform="rotate(-180 20.9457 21.178)" fill="#E64040"/>
<path d="M14.5202 10.9347C14.6602 11.0747 14.7302 11.2529 14.7302 11.4693C14.7302 11.6856 14.6602 11.8638 14.5202 12.0038L11.0075 15.5166C10.9311 15.5929 10.8484 15.6469 10.7593 15.6785C10.6702 15.71 10.5747 15.7261 10.4729 15.7266C10.3711 15.7266 10.2756 15.7105 10.1866 15.6785C10.0975 15.6464 10.0147 15.5924 9.93837 15.5166L6.42561 12.0038C6.28561 11.8638 6.2123 11.6887 6.20568 11.4784C6.19906 11.2682 6.27237 11.0869 6.42561 10.9347C6.56561 10.7947 6.74379 10.7247 6.96016 10.7247C7.17653 10.7247 7.35471 10.7947 7.49471 10.9347L10.4729 13.8938L13.4511 10.9347C13.5911 10.7947 13.7663 10.7214 13.9765 10.7148C14.1868 10.7082 14.368 10.7815 14.5202 10.9347ZM14.5202 6.35285C14.6602 6.49285 14.7302 6.67103 14.7302 6.8874C14.7302 7.10376 14.6602 7.28195 14.5202 7.42195L11.0075 10.9347C10.9311 11.0111 10.8484 11.065 10.7593 11.0966C10.6702 11.1282 10.5747 11.1442 10.4729 11.1447C10.3711 11.1447 10.2756 11.1287 10.1866 11.0966C10.0975 11.0645 10.0147 11.0106 9.93837 10.9347L6.42561 7.42195C6.28561 7.28195 6.2123 7.10682 6.20568 6.89656C6.19906 6.6863 6.27237 6.50507 6.42561 6.35285C6.56561 6.21285 6.74379 6.14285 6.96016 6.14285C7.17653 6.14285 7.35471 6.21285 7.49471 6.35285L10.4729 9.31196L13.4511 6.35285C13.5911 6.21285 13.7663 6.13954 13.9765 6.13292C14.1868 6.1263 14.368 6.19961 14.5202 6.35285Z" fill="black"/>
</svg>
