<svg width="22" height="22" viewBox="0 0 22 22" fill="none" xmlns="http://www.w3.org/2000/svg">
<rect x="0.654785" y="0.232666" width="20.9456" height="20.9456" rx="10.4728" fill="#24E16F"/>
<path d="M7.08024 10.4762C6.94024 10.3362 6.87024 10.158 6.87024 9.94163C6.87024 9.72527 6.94024 9.54709 7.08024 9.40708L10.593 5.89433C10.6694 5.81796 10.7521 5.764 10.8412 5.73244C10.9303 5.70087 11.0257 5.68484 11.1275 5.68433C11.2294 5.68433 11.3248 5.70036 11.4139 5.73244C11.503 5.76451 11.5857 5.81847 11.6621 5.89433L15.1749 9.40708C15.3149 9.54709 15.3882 9.72221 15.3948 9.93247C15.4014 10.1427 15.3281 10.324 15.1749 10.4762C15.0349 10.6162 14.8567 10.6862 14.6403 10.6862C14.4239 10.6862 14.2458 10.6162 14.1058 10.4762L11.1275 7.51707L8.14934 10.4762C8.00934 10.6162 7.83421 10.6895 7.62395 10.6961C7.4137 10.7027 7.23246 10.6294 7.08024 10.4762ZM7.08024 15.058C6.94024 14.918 6.87024 14.7399 6.87024 14.5235C6.87024 14.3071 6.94024 14.1289 7.08024 13.9889L10.593 10.4762C10.6694 10.3998 10.7521 10.3459 10.8412 10.3143C10.9303 10.2827 11.0257 10.2667 11.1275 10.2662C11.2294 10.2662 11.3248 10.2822 11.4139 10.3143C11.503 10.3464 11.5857 10.4003 11.6621 10.4762L15.1749 13.9889C15.3149 14.1289 15.3882 14.3041 15.3948 14.5143C15.4014 14.7246 15.3281 14.9058 15.1749 15.058C15.0349 15.198 14.8567 15.268 14.6403 15.268C14.4239 15.268 14.2458 15.198 14.1058 15.058L11.1275 12.0989L8.14934 15.058C8.00934 15.198 7.83421 15.2714 7.62395 15.278C7.4137 15.2846 7.23246 15.2113 7.08024 15.058Z" fill="black"/>
</svg>
