<svg width="24" height="24" viewBox="0 0 24 24" fill="none" xmlns="http://www.w3.org/2000/svg">
<path d="M4 21C3.71667 21 3.479 20.904 3.287 20.712C3.095 20.52 2.99934 20.2827 3 20C3 19.7167 3.096 19.479 3.288 19.287C3.48 19.095 3.71734 18.9993 4 19H5V4C5 3.71667 5.096 3.479 5.288 3.287C5.48 3.095 5.71734 2.99934 6 3H13C13.2833 3 13.521 3.096 13.713 3.288C13.905 3.48 14.0007 3.71734 14 4H18C18.2833 4 18.521 4.096 18.713 4.288C18.905 4.48 19.0007 4.71734 19 5V19H20C20.2833 19 20.521 19.096 20.713 19.288C20.905 19.48 21.0007 19.7173 21 20C21 20.2833 20.904 20.521 20.712 20.713C20.52 20.905 20.2827 21.0007 20 21H18C17.7167 21 17.479 20.904 17.287 20.712C17.095 20.52 16.9993 20.2827 17 20V6H14V20C14 20.2833 13.904 20.521 13.712 20.713C13.52 20.905 13.2827 21.0007 13 21H4ZM12 12C12 11.7167 11.904 11.479 11.712 11.287C11.52 11.095 11.2827 10.9993 11 11C10.7167 11 10.479 11.096 10.287 11.288C10.095 11.48 9.99934 11.7173 10 12C10 12.2833 10.096 12.521 10.288 12.713C10.48 12.905 10.7173 13.0007 11 13C11.2833 13 11.521 12.904 11.713 12.712C11.905 12.52 12.0007 12.2827 12 12Z" fill="url(#paint0_radial_0_35)"/>
<defs>
<radialGradient id="paint0_radial_0_35" cx="0" cy="0" r="1" gradientUnits="userSpaceOnUse" gradientTransform="translate(12 12) rotate(90) scale(34)">
<stop/>
<stop offset="1" stop-opacity="0"/>
</radialGradient>
</defs>
</svg>
