<svg width="18" height="18" viewBox="0 0 18 18" fill="none" xmlns="http://www.w3.org/2000/svg">
<path d="M2.10451 3.90001L5.25376 6.00001L8.39326 1.60501C8.46258 1.50774 8.55413 1.42844 8.66028 1.3737C8.76644 1.31895 8.88413 1.29036 9.00357 1.29028C9.12301 1.29021 9.24074 1.31866 9.34696 1.37328C9.45318 1.42789 9.54482 1.50708 9.61426 1.60426L12.7538 6.00001L15.9038 3.90076C16.023 3.82144 16.1624 3.77791 16.3056 3.77531C16.4487 3.77271 16.5897 3.81115 16.7117 3.88608C16.8337 3.96101 16.9317 4.0693 16.9941 4.19816C17.0566 4.32702 17.0808 4.47106 17.064 4.61326L15.8325 15.087C15.811 15.2694 15.7233 15.4377 15.586 15.5597C15.4488 15.6818 15.2715 15.7492 15.0878 15.7493H2.92051C2.73681 15.7492 2.55951 15.6818 2.42223 15.5597C2.28496 15.4377 2.19725 15.2694 2.17576 15.087L0.943512 4.61176C0.926743 4.46951 0.951062 4.32542 1.01359 4.19655C1.07612 4.06768 1.17425 3.95941 1.29637 3.88455C1.41848 3.80969 1.55949 3.77136 1.7027 3.7741C1.84591 3.77684 1.98535 3.82053 2.10451 3.90001ZM9.00451 11.25C9.40234 11.25 9.78387 11.092 10.0652 10.8107C10.3465 10.5294 10.5045 10.1478 10.5045 9.75001C10.5045 9.35219 10.3465 8.97065 10.0652 8.68935C9.78387 8.40805 9.40234 8.25001 9.00451 8.25001C8.60669 8.25001 8.22516 8.40805 7.94385 8.68935C7.66255 8.97065 7.50451 9.35219 7.50451 9.75001C7.50451 10.1478 7.66255 10.5294 7.94385 10.8107C8.22516 11.092 8.60669 11.25 9.00451 11.25Z" fill="black" fill-opacity="0.73"/>
</svg>
