<svg width="28" height="28" viewBox="0 0 28 28" fill="none" xmlns="http://www.w3.org/2000/svg">
<path d="M3.50001 22.1667C3.16945 22.1667 2.89217 22.0547 2.66817 21.8307C2.44417 21.6067 2.33256 21.3298 2.33334 21C2.33334 20.6694 2.44534 20.3922 2.66934 20.1682C2.89334 19.9442 3.17023 19.8325 3.50001 19.8333H24.5C24.8306 19.8333 25.1078 19.9453 25.3318 20.1693C25.5558 20.3933 25.6674 20.6702 25.6667 21C25.6667 21.3305 25.5547 21.6078 25.3307 21.8318C25.1067 22.0558 24.8298 22.1674 24.5 22.1667H3.50001ZM3.50001 18.6667V17.5C3.50001 15.0111 4.2634 12.8139 5.79017 10.9083C7.31695 9.00277 9.27578 7.79721 11.6667 7.29166V6.99999C11.6667 6.35833 11.8953 5.80882 12.3527 5.35149C12.81 4.89416 13.3591 4.66588 14 4.66666C14.6417 4.66666 15.1912 4.89532 15.6485 5.35266C16.1058 5.80999 16.3341 6.3591 16.3333 6.99999V7.29166C18.7445 7.79721 20.7083 9.00277 22.225 10.9083C23.7417 12.8139 24.5 15.0111 24.5 17.5V18.6667H3.50001Z" fill="url(#paint0_linear_0_20)"/>
<defs>
<linearGradient id="paint0_linear_0_20" x1="14" y1="0.74424" x2="28.9293" y2="14.367" gradientUnits="userSpaceOnUse">
<stop stop-color="#0085FF"/>
<stop offset="1" stop-color="#00B2FF"/>
</linearGradient>
</defs>
</svg>
